<?xml version="1.0" encoding="utf-8"?>
<!-- Generator: Adobe Illustrator 17.1.0, SVG Export Plug-In . SVG Version: 6.00 Build 0)  -->
<!DOCTYPE svg PUBLIC "-//W3C//DTD SVG 1.1//EN" "http://www.w3.org/Graphics/SVG/1.1/DTD/svg11.dtd">
<svg version="1.1" id="Layer_1" xmlns="http://www.w3.org/2000/svg" xmlns:xlink="http://www.w3.org/1999/xlink" x="0px" y="0px"
	 viewBox="0 3 24 18" enable-background="new 0 3 24 18" xml:space="preserve">
<path fill="#fff" d="M21.7,3.2c-0.3-0.3-0.8-0.3-1.1,0L9.4,14.3c-0.3,0.3-0.8,0.3-1.1,0l-4.9-5C3.3,9.2,3.1,9.1,2.9,9.1c-0.2,0-0.4,0.1-0.5,0.2
	l-2.2,1.9C0.1,11.4,0,11.6,0,11.8c0,0.2,0.1,0.4,0.2,0.5l4.9,5.2c0.3,0.3,0.8,0.8,1.1,1.1l2.1,2.1c0.3,0.3,0.8,0.3,1.1,0L23.8,6.4
	c0.3-0.3,0.3-0.8,0-1.1L21.7,3.2z"/>
</svg>
