<?xml version="1.0" encoding="utf-8"?>
<!-- Generated by IcoMoon.io -->
<!DOCTYPE svg PUBLIC "-//W3C//DTD SVG 1.1//EN" "http://www.w3.org/Graphics/SVG/1.1/DTD/svg11.dtd">
<svg version="1.1" xmlns="http://www.w3.org/2000/svg" xmlns:xlink="http://www.w3.org/1999/xlink" width="512" height="1024" viewBox="0 0 512 1024"><g id="icomoon-ignore">
</g>
<path fill="#fff" d="M246 820h-246l4-38 34-4q32-6 32-20v-464q0-16-38-20h-28l-4-36h260q234 0 234 130 0 58-45 95t-113 49v4q176 22 176 150 0 154-266 154zM232 280h-42v228h52q54 0 85-32t31-80q0-54-32-85t-94-31zM224 544h-34v234l52 8h10q54 0 90-31t36-85q0-64-42-95t-112-31z"></path>
</svg>
