<?xml version="1.0" encoding="utf-8"?>
<!-- Generated by IcoMoon.io -->
<!DOCTYPE svg PUBLIC "-//W3C//DTD SVG 1.1//EN" "http://www.w3.org/Graphics/SVG/1.1/DTD/svg11.dtd">
<svg version="1.1" xmlns="http://www.w3.org/2000/svg" xmlns:xlink="http://www.w3.org/1999/xlink" width="718" height="1024" viewBox="0 0 718 1024"><g id="icomoon-ignore">
</g>
<path fill="#fff" d="M190 820q-82 0-136-60t-54-146q0-200 280-376l56 56q-88 54-128 104t-40 114q0 54 42 92t84 56 42 20q0 52-42 96t-104 44zM572 820q-82 0-136-60t-54-146q0-202 278-376l56 56q-88 56-127 106t-39 116q0 54 41 92t83 56 42 20q4 50-37 93t-107 43z"></path>
</svg>
