<?xml version="1.0" encoding="utf-8"?>
<!-- Generator: Adobe Illustrator 18.1.1, SVG Export Plug-In . SVG Version: 6.00 Build 0)  -->
<svg version="1.1" id="Layer_1" xmlns="http://www.w3.org/2000/svg" xmlns:xlink="http://www.w3.org/1999/xlink" x="0px" y="0px"
	 width="34px" height="34px" viewBox="-402 784 34 34" enable-background="new -402 784 34 34" xml:space="preserve">
<g>
	<path d="M-385,784c-9.4,0-17,7.6-17,17s7.6,17,17,17s17-7.6,17-17S-375.6,784-385,784z M-385,816c-8.3,0-15-6.7-15-15
		c0-8.3,6.7-15,15-15c8.3,0,15,6.7,15,15C-370,809.3-376.7,816-385,816z"/>
	<path d="M-387.1,795.5c0-0.1-0.1-0.3-0.1-0.4l-1-1c-0.2-0.2-0.5-0.2-0.7,0l-6.4,6.4c-0.2,0.2-0.2,0.5,0,0.7l6.4,6.4
		c0.1,0.1,0.2,0.1,0.4,0.1s0.3,0,0.4-0.1l0.9-0.9c0.2-0.2,0.2-0.5,0-0.7l-5.1-5.2l5.2-5.1C-387.2,795.8-387.1,795.7-387.1,795.5z"/>
	<path d="M-381.1,794.2c-0.2-0.2-0.5-0.2-0.7,0l-1,1c-0.1,0.1-0.1,0.2-0.1,0.4c0,0.1,0.1,0.3,0.1,0.4l5.2,5.1l-5.2,5.2
		c-0.1,0.1-0.2,0.2-0.1,0.4s0.1,0.3,0.2,0.4l1,0.9c0.1,0.1,0.2,0.1,0.3,0.1c0.1,0,0.3,0,0.4-0.1l6.4-6.4c0.2-0.2,0.2-0.5,0-0.7
		L-381.1,794.2z"/>
</g>
</svg>
