<?xml version="1.0" encoding="utf-8"?>
<!-- Generator: Adobe Illustrator 18.1.1, SVG Export Plug-In . SVG Version: 6.00 Build 0)  -->
<svg version="1.1" id="Layer_1" xmlns="http://www.w3.org/2000/svg" xmlns:xlink="http://www.w3.org/1999/xlink" x="0px" y="0px"
	 width="34px" height="34px" viewBox="-402 784 34 34" enable-background="new -402 784 34 34" xml:space="preserve">
<g>
	<path d="M-385,784c-9.4,0-17,7.6-17,17s7.6,17,17,17s17-7.6,17-17S-375.6,784-385,784z M-385,816c-8.3,0-15-6.7-15-15
		c0-8.3,6.7-15,15-15c8.3,0,15,6.7,15,15C-370,809.3-376.7,816-385,816z"/>
	<path d="M-378.8,806.9h-1.5c-0.3,0-0.5,0.2-0.5,0.6s0.2,0.6,0.5,0.6h1.5c0.3,0,0.5-0.2,0.5-0.6S-378.5,806.9-378.8,806.9z"/>
	<path d="M-378.2,794h-1.5c-0.3,0-0.5,0.2-0.5,0.6c0,0.3,0.2,0.6,0.5,0.6h1.5c0.3,0,0.5-0.2,0.5-0.6
		C-377.7,794.2-377.9,794-378.2,794z"/>
	<path d="M-381.9,794h-1.5c-0.3,0-0.5,0.2-0.5,0.6c0,0.3,0.2,0.6,0.5,0.6h1.5c0.3,0,0.5-0.2,0.5-0.6
		C-381.3,794.2-381.6,794-381.9,794z"/>
	<path d="M-394.5,800.5c0.3,0,0.5-0.2,0.5-0.6v-1.5c0-0.3-0.2-0.6-0.5-0.6c-0.3,0-0.5,0.2-0.5,0.6v1.5
		C-395,800.2-394.8,800.5-394.5,800.5z"/>
	<path d="M-375.5,794h-0.5c-0.3,0-0.5,0.2-0.5,0.6c0,0.3,0.2,0.5,0.5,0.5v0.4c0,0.3,0.2,0.6,0.5,0.6s0.5-0.2,0.5-0.6v-1
		C-375,794.2-375.2,794-375.5,794z"/>
	<path d="M-375.5,805.4c-0.3,0-0.5,0.2-0.5,0.6v0.9h-0.5c-0.3,0-0.5,0.2-0.5,0.6c0,0.3,0.2,0.6,0.5,0.6h1.1c0.3,0,0.5-0.2,0.5-0.6v0
		v-0.4V806C-375,805.7-375.2,805.4-375.5,805.4z"/>
	<path d="M-392.9,794h-1.5c0,0,0,0-0.1,0c0,0,0,0-0.1,0c-0.3,0-0.5,0.2-0.5,0.6v1.5c0,0.3,0.2,0.6,0.5,0.6c0.3,0,0.5-0.2,0.5-0.6
		v-0.9h1c0.3,0,0.5-0.2,0.5-0.6C-392.3,794.2-392.6,794-392.9,794z"/>
	<path d="M-375.5,801.6c-0.3,0-0.5,0.2-0.5,0.6v1.5c0,0.3,0.2,0.6,0.5,0.6s0.5-0.2,0.5-0.6v-1.5C-375,801.8-375.2,801.6-375.5,801.6
		z"/>
	<path d="M-389.2,794h-1.5c-0.3,0-0.5,0.2-0.5,0.6c0,0.3,0.2,0.6,0.5,0.6h1.5c0.3,0,0.5-0.2,0.5-0.6
		C-388.7,794.2-388.9,794-389.2,794z"/>
	<path d="M-394.5,804.1c0.3,0,0.5-0.2,0.5-0.6v-1.5c0-0.3-0.2-0.6-0.5-0.6c-0.3,0-0.5,0.2-0.5,0.6v1.5
		C-395,803.9-394.8,804.1-394.5,804.1z"/>
	<path d="M-385.5,794h-1.5c-0.3,0-0.5,0.2-0.5,0.6c0,0.3,0.2,0.6,0.5,0.6h1.5c0.3,0,0.5-0.2,0.5-0.6C-385,794.2-385.2,794-385.5,794
		z"/>
	<path d="M-393.5,806.9h-0.4V806c0-0.3-0.2-0.6-0.5-0.6c-0.3,0-0.5,0.2-0.5,0.6v1.5c0,0.3,0.2,0.6,0.5,0.6h1c0.3,0,0.5-0.2,0.5-0.6
		S-393.2,806.9-393.5,806.9z"/>
	<path d="M-382.5,806.9h-1.5c-0.3,0-0.5,0.2-0.5,0.6s0.2,0.6,0.5,0.6h1.5c0.3,0,0.5-0.2,0.5-0.6S-382.2,806.9-382.5,806.9z"/>
	<path d="M-389.8,806.9h-1.5c-0.3,0-0.5,0.2-0.5,0.6s0.2,0.6,0.5,0.6h1.5c0.3,0,0.5-0.2,0.5-0.6S-389.5,806.9-389.8,806.9z"/>
	<path d="M-386.1,806.9h-1.5c-0.3,0-0.5,0.2-0.5,0.6s0.2,0.6,0.5,0.6h1.5c0.3,0,0.5-0.2,0.5-0.6S-385.8,806.9-386.1,806.9z"/>
	<path d="M-375.5,797.3c-0.3,0-0.5,0.2-0.5,0.6v1.5c0,0.3,0.2,0.6,0.5,0.6s0.5-0.2,0.5-0.6v-1.5C-375,797.5-375.2,797.3-375.5,797.3
		z"/>
</g>
</svg>
