<?xml version="1.0" encoding="utf-8"?>
<!-- Generated by IcoMoon.io -->
<!DOCTYPE svg PUBLIC "-//W3C//DTD SVG 1.1//EN" "http://www.w3.org/Graphics/SVG/1.1/DTD/svg11.dtd">
<svg version="1.1" xmlns="http://www.w3.org/2000/svg" xmlns:xlink="http://www.w3.org/1999/xlink" width="986" height="1024" viewBox="0 0 986 1024"><g id="icomoon-ignore">
</g>
<path fill="#fff" d="M378 820l4-38 32-4q32-4 32-20v-214h-256v220q0 14 34 14l32 4 4 38h-260l4-38 34-4q32-6 32-20v-464q0-16-38-20h-28l-4-36h260l-4 36-32 6q-34 0-34 18v204h256v-208q0-14-32-14l-32-6-4-36h260l-4 36-34 6q-32 6-32 18v466q0 14 38 18l32 4 4 38h-264v-4zM726 820v-38l66-10q18-6 18-18v-322l-88-8v-28l194-56v414q0 12 20 18l50 10v38h-260z"></path>
</svg>
