<?xml version="1.0" encoding="utf-8"?>
<!-- Generated by IcoMoon.io -->
<!DOCTYPE svg PUBLIC "-//W3C//DTD SVG 1.1//EN" "http://www.w3.org/Graphics/SVG/1.1/DTD/svg11.dtd">
<svg version="1.1" xmlns="http://www.w3.org/2000/svg" xmlns:xlink="http://www.w3.org/1999/xlink" width="1042" height="1024" viewBox="0 0 1042 1024"><g id="icomoon-ignore">
</g>
<path fill="#fff" d="M378 820l4-38 32-4q32-4 32-20v-214h-256v220q0 14 34 14l32 4 4 38h-260l4-38 34-4q32-6 32-20v-464q0-16-38-20h-28l-4-36h260l-4 36-32 6q-34 0-34 18v204h256v-208q0-14-36-14l-28-6-4-36h260l-4 36-34 6q-32 6-32 18v466q0 14 38 18l32 4 4 38h-264v-4zM1020 820h-304l-4-48q20-22 60-61t58-58 41-48 32-54 9-53q0-38-22-59t-56-21q-50 0-112 52l-10-18q66-108 168-108 64 0 102 37t38 93q0 54-45 104t-153 138l-30 24v4h50q98 0 119-2t31-16l18-32h32z"></path>
</svg>
