<?xml version="1.0" encoding="utf-8"?>
<!-- Generated by IcoMoon.io -->
<!DOCTYPE svg PUBLIC "-//W3C//DTD SVG 1.1//EN" "http://www.w3.org/Graphics/SVG/1.1/DTD/svg11.dtd">
<svg version="1.1" xmlns="http://www.w3.org/2000/svg" xmlns:xlink="http://www.w3.org/1999/xlink" width="270" height="1024" viewBox="0 0 270 1024"><g id="icomoon-ignore">
</g>
<path fill="#fff" d="M102 838q-6 0-18-3t-23-8l-22-10t-17-10-4-7l90-334-28-10-62 66-18-20q20-44 55-80t67-36q8 0 25 4t32 10 26 13 9 11l-92 340 22 8 70-46 18 18q-22 36-60 65t-70 29zM204 326q-60 0-60-60 0-34 21-59t45-25q60 0 60 64-2 34-22 57t-44 23z"></path>
</svg>
