<?xml version="1.0" encoding="utf-8"?>
<!-- Generator: Adobe Illustrator 18.1.1, SVG Export Plug-In . SVG Version: 6.00 Build 0)  -->
<svg version="1.1" id="Layer_1" xmlns="http://www.w3.org/2000/svg" xmlns:xlink="http://www.w3.org/1999/xlink" x="0px" y="0px"
	 width="34px" height="34px" viewBox="-402 784 34 34" enable-background="new -402 784 34 34" xml:space="preserve">
<g>
	<path d="M-378.1,795.8l-2.6,0c0,0-0.9-2-1.3-2h-5.7c-0.1,0-0.4,0-1.2,2h-3c-0.6,0-1.2,0.2-1.6,0.6c-0.4,0.4-0.7,0.9-0.7,1.5v8.2
		c0,0.6,0.2,1.1,0.7,1.5c0.4,0.4,1,0.6,1.6,0.6h13.8c0.6,0,1.2-0.2,1.6-0.6c0.4-0.4,0.7-0.9,0.7-1.5v-8.2c0-0.6-0.2-1.1-0.7-1.5
		C-376.9,796-377.5,795.8-378.1,795.8z M-387.3,795.6c0.1-0.2,0.3-0.3,0.5-0.3h4c0.2,0,0.4,0.1,0.5,0.3c0,0.1,0.1,0.3,0.2,0.5
		c0.1,0.3,0.2,0.6,0.3,0.8c0.1,0.2,0.3,0.4,0.6,0.4h2.9c0.6,0,1,0.4,1,0.9v7.7c0,0.5-0.5,0.9-1,0.9h-13.4c-0.6,0-1-0.4-1-0.9v-7.7
		c0-0.5,0.5-0.9,1-0.9h3.4c0.2,0,0.5-0.1,0.5-0.4L-387.3,795.6z"/>
	<path d="M-387.8,804.2c0.7,0.7,1.7,1.1,2.7,1.1c1.1,0,2-0.4,2.8-1.1c0.8-0.7,1.2-1.6,1.2-2.6s-0.4-1.9-1.2-2.6
		c-0.8-0.7-1.7-1.1-2.8-1.1c-1.1,0-2,0.4-2.7,1.1c-0.7,0.7-1.1,1.6-1.1,2.6S-388.5,803.5-387.8,804.2z M-385,799.1
		c0.7,0,1.3,0.2,1.8,0.7c0.5,0.5,0.8,1,0.8,1.7s-0.2,1.2-0.8,1.7c-0.5,0.5-1.1,0.7-1.8,0.7c-0.7,0-1.3-0.2-1.8-0.7
		c-0.5-0.5-0.7-1-0.7-1.7c0-0.7,0.2-1.2,0.7-1.7C-386.3,799.3-385.7,799.1-385,799.1z"/>
	<path d="M-385,784c-9.4,0-17,7.6-17,17s7.6,17,17,17s17-7.6,17-17S-375.6,784-385,784z M-385,816c-8.3,0-15-6.7-15-15
		c0-8.3,6.7-15,15-15c8.3,0,15,6.7,15,15C-370,809.3-376.7,816-385,816z"/>
</g>
</svg>
