<?xml version="1.0" encoding="utf-8"?>
<!-- Generated by IcoMoon.io -->
<!DOCTYPE svg PUBLIC "-//W3C//DTD SVG 1.1//EN" "http://www.w3.org/Graphics/SVG/1.1/DTD/svg11.dtd">
<svg version="1.1" xmlns="http://www.w3.org/2000/svg" xmlns:xlink="http://www.w3.org/1999/xlink" width="830" height="1024" viewBox="0 0 830 1024"><g id="icomoon-ignore">
</g>
<path fill="#fff" d="M0 580q0-44 18-80h2v-2l2-2q12-24 28-40l156-156h2v-2q34-30 70-42-46 52-58 116-4 24-4 40 0 4 1 10t1 8l-98 98q-16 16-18 32-2 6-2 20 0 16 2 24 6 16 18 28l64 64q20 20 52 20t52-20l60-62 96-96q10-10 14-18 6-14 6-34 0-16-2-22l-2-2-2-8-2-2-4-6v-2l-2-2q-2-4-6-8l-24-24q0-6 2-8l4-6 60-60 38 38q2 2 2 4l4 4 2 4q0 2 2 2l2 4 2 2v2l6 8v2q2 4 7 16t7 18 2 12q4 20 4 34 0 22-2 32-8 52-48 92l-80 80-76 78q-50 50-122 50t-122-50l-64-66q-32-32-44-80-6-24-6-42zM264 410q0-6 4-30 8-52 48-92l32-34 124-124q50-50 122-50t122 50l64 64q32 32 44 80 6 24 6 42 0 44-18 80h-2v4q-8 14-30 40l-158 156v2q-38 34-70 42 46-48 58-116 2-12 2-40v-18l98-96q14-16 16-32 4-12 4-22 0-6-4-22-8-20-16-30l-64-64q-20-20-52-20t-52 20l-60 62-40 38-56 58q-6 6-14 20-8 24-8 32 0 10 4 22v2l4 8 2 2 2 8h2v2l32 32q0 6-2 8l-4 6-56 56-6 4-36-36v-2l-2-2q-4-4-4-6l-2-2-6-8v-2l-6-10q-2-4-14-34-2-6-2-14-6-18-6-34z"></path>
</svg>
