<?xml version="1.0" encoding="utf-8"?>
<!-- Generator: Adobe Illustrator 18.1.1, SVG Export Plug-In . SVG Version: 6.00 Build 0)  -->
<svg version="1.1" id="Layer_1" xmlns="http://www.w3.org/2000/svg" xmlns:xlink="http://www.w3.org/1999/xlink" x="0px" y="0px"
	 width="373.9px" height="582px" viewBox="-473.9 510 373.9 582" enable-background="new -473.9 510 373.9 582"
	 xml:space="preserve">
<g id="icomoon-ignore">
</g>
<path fill="#fff" d="M-142.5,568.9c-28.8-39.1-69.6-58.9-121.2-58.9c-26.8,0-52.3,5.4-76,16.2c-16.8,7.6-32.6,16.7-47.1,27.1v-32.1h-87.1V1092
	h87.1V929.3c13.3,6.4,26.6,11.3,39.6,14.8c17.7,4.8,37.7,7.2,59.3,7.2c25.3,0,49.7-5.2,72.3-15.5c22.7-10.3,42.6-24.9,59.3-43.6
	c17.9-19.6,31.9-43.9,41.6-72c9.7-27.9,14.6-59.2,14.6-92.8C-100.1,660.5-114.3,607.1-142.5,568.9z M-189.4,729.2
	c0,47.5-9.9,83.5-29.5,107.1c-19.4,23.4-45.9,34.7-80.9,34.7c-16.8,0-31.9-1.5-44.9-4.5c-11.8-2.7-25.9-7.5-42.1-14.5V634.9
	c16.2-11.9,33.2-21.7,50.8-29.1c18.4-7.9,36.9-11.8,55-11.8c31.3,0,53.7,10.4,68.5,31.9C-197.2,648.1-189.4,682.9-189.4,729.2z"/>
</svg>
