<?xml version="1.0" encoding="utf-8"?>
<!-- Generator: Adobe Illustrator 18.1.1, SVG Export Plug-In . SVG Version: 6.00 Build 0)  -->
<svg version="1.1" id="Layer_1" xmlns="http://www.w3.org/2000/svg" xmlns:xlink="http://www.w3.org/1999/xlink" x="0px" y="0px"
	 width="1028.1px" height="1038.6px" viewBox="296 123.7 1028.1 1038.6" enable-background="new 296 123.7 1028.1 1038.6"
	 xml:space="preserve">
<g>
	<path fill="#fff" d="M296,613.3h1028.1v100H296V613.3z"/>
	<path fill="#fff" d="M529.5,570h363.1l-123.7-60.1c-67.7-32.8-112.7-63.8-134.7-93.1c-22.9-28.5-34.3-62.7-34.3-102.7c0-32.1,15.3-61.3,46-87.7
		c30.7-26.3,71-39.5,120.9-39.5c65.5,0,119.6,18.9,162,56.7c42.5,37.8,77.2,109.1,104.3,213.9h35.3V123.7h-35.3
		c-8.5,17.1-16.1,28.2-22.5,33.1c-6.4,5-15.3,7.5-26.7,7.5c-12.1,0-36.4-5.3-72.8-16.1c-54.9-16.4-101.6-24.6-140.1-24.6
		c-87.7,0-159.3,27.1-214.5,81.3c-55.3,54.2-82.9,121.6-82.9,202.2c0,62,16.1,113.3,48.1,154C524,564.1,526.8,567.1,529.5,570z"/>
	<path fill="#fff" d="M830.8,756.7c46.3,26.9,80.2,50.5,101.2,70.9c34.5,33.5,51.9,74.9,51.9,124c0,40.7-15.5,75.5-46.5,104.3
		c-31.1,28.9-71.1,43.3-120.3,43.3c-69.9,0-133-25.3-189.3-76c-56.3-50.6-94.5-125.8-114.5-225.7h-35.3v349.7h35.3
		c9.3-18.5,22.1-27.8,38.5-27.8c14.9,0,34.2,3.6,57.7,10.7c77,21.3,145.5,32.1,205.4,32.1c83.4,0,158.8-27.3,226.2-81.8
		c67.3-54.6,101.1-126.4,101.1-215.6c0-38.6-8.3-74.7-24.5-108.3H830.8z"/>
</g>
</svg>
