<?xml version="1.0" encoding="utf-8"?>
<!-- Generator: Adobe Illustrator 18.1.1, SVG Export Plug-In . SVG Version: 6.00 Build 0)  -->
<svg version="1.1" id="Layer_1" xmlns="http://www.w3.org/2000/svg" xmlns:xlink="http://www.w3.org/1999/xlink" x="0px" y="0px"
	 width="34px" height="34px" viewBox="-402 784 34 34" enable-background="new -402 784 34 34" xml:space="preserve">
<g>
	<path d="M-385,784c-9.4,0-17,7.6-17,17s7.6,17,17,17s17-7.6,17-17S-375.6,784-385,784z M-385,816c-8.3,0-15-6.7-15-15
		c0-8.3,6.7-15,15-15c8.3,0,15,6.7,15,15C-370,809.3-376.7,816-385,816z"/>
	<path d="M-387.6,793.2c-0.3-0.2-0.7-0.2-0.9,0c-0.3,0.2-0.4,0.5-0.4,0.8v14c0,0.3,0.1,0.6,0.4,0.8c0.3,0.2,0.6,0.2,0.9,0l10.2-6.8
		c0.3-0.2,0.4-0.5,0.4-1c0-0.4-0.1-0.8-0.4-1.1L-387.6,793.2z"/>
</g>
</svg>
